<svg width="34" height="34" viewBox="0 0 34 34" fill="none" xmlns="http://www.w3.org/2000/svg">
<rect y="16.9706" width="24" height="24" rx="12" transform="rotate(-45 0 16.9706)" fill="#2963BA"/>
<path d="M11.7172 20.6877L11.4343 20.9706L12 21.5363L12.2828 21.2534L11.7172 20.6877ZM21.4 11.9706C21.4 11.7497 21.2209 11.5706 21 11.5706L17.4 11.5706C17.1791 11.5706 17 11.7497 17 11.9706C17 12.1915 17.1791 12.3706 17.4 12.3706L20.6 12.3706L20.6 15.5706C20.6 15.7915 20.7791 15.9706 21 15.9706C21.2209 15.9706 21.4 15.7915 21.4 15.5706L21.4 11.9706ZM12.2828 21.2534L21.2828 12.2534L20.7172 11.6877L11.7172 20.6877L12.2828 21.2534Z" fill="white"/>
</svg>
