<svg width="202" height="174" viewBox="0 0 202 174" fill="none" xmlns="http://www.w3.org/2000/svg">
<path d="M200.84 41.6106C197.6 31.9133 182.09 29.1389 166.212 34.2929L132.71 45.1677C128.055 46.6787 126.066 46.4973 122.298 44.2294L46.6587 1.44018C44.2655 0.0120945 41.7803 -0.283682 39.2864 0.52584L29.6433 3.65603C27.482 4.3576 26.8555 6.67399 28.6916 8.6504L78.0937 62.8963L37.4284 81.425L13.4247 58.7151C11.6695 56.988 9.54392 56.6675 6.80061 57.558L3.22603 58.7183C1.06465 59.4199 0.110087 61.2916 0.811527 63.4525L26.118 141.414C26.8195 143.575 28.6644 144.446 30.8257 143.744L34.4003 142.584C37.1436 141.694 38.6757 140.186 39.1088 137.84L45.1983 105.362L88.9933 96.4746L80.8692 169.393C80.5169 171.988 82.4115 173.578 84.5728 172.877L94.216 169.747C96.7098 168.937 98.5204 167.155 99.6456 164.677L135.707 85.537C137.452 81.5713 138.955 80.257 143.61 78.746L177.111 67.8713C192.989 62.7172 203.886 51.2792 200.84 41.6106Z" fill="#3880EB"/>
</svg>
