<svg width="16" height="16" viewBox="0 0 16 16" fill="none" xmlns="http://www.w3.org/2000/svg">
<g clip-path="url(#clip0_32_32898)">
<path d="M15.9921 8C15.9921 3.6235 12.3626 0 7.99605 0C3.62175 0 0 3.63133 0 8.00783C0 12.3765 3.62175 16 7.99605 16C12.3626 16 15.9921 12.3686 15.9921 8ZM14.6595 8C14.6595 11.7019 11.6962 14.6588 7.99605 14.6588C4.29593 14.6588 1.33268 11.7098 1.33268 8.00783C1.33268 4.30583 4.29593 1.33328 7.99605 1.33328C11.6962 1.33328 14.6595 4.298 14.6595 8Z" fill="black" fill-opacity="0.85"/>
<path d="M6.05192 5.55296C6.05192 5.89804 6.28709 6.12553 6.66338 6.12553H8.01959L9.2425 6.00787L8.03524 7.13728L5.1504 10.0236C5.04065 10.1412 4.97009 10.2824 4.97009 10.4706C4.97009 10.8157 5.19743 11.051 5.5502 11.051C5.70698 11.051 5.86377 10.9726 5.97352 10.8628L8.85838 7.96867L10.0029 6.74515L9.87747 7.90589V9.33337C9.87747 9.70984 10.1048 9.95298 10.4498 9.95298C10.7947 9.95298 11.022 9.71769 11.022 9.34906V5.6314C11.022 5.23143 10.8417 4.97255 10.3792 4.97255H6.67906C6.31061 4.97255 6.05192 5.20787 6.05192 5.55296Z" fill="black" fill-opacity="0.85"/>
</g>
<defs>
<clipPath id="clip0_32_32898">
<rect width="16" height="16" fill="white" transform="matrix(0 -1 1 0 0 16)"/>
</clipPath>
</defs>
</svg>
