<svg width="17" height="16" viewBox="0 0 17 16" fill="none" xmlns="http://www.w3.org/2000/svg">
<g clip-path="url(#clip0_32_32879)">
<path d="M0 5.60888C0 9.20195 3.05589 12.7359 7.88372 15.7723C8.06349 15.8819 8.32024 16 8.5 16C8.67976 16 8.93659 15.8819 9.1249 15.7723C13.9441 12.7359 17 9.20195 17 5.60888C17 2.62312 14.92 0.514526 12.1465 0.514526C10.5629 0.514526 9.27895 1.25675 8.5 2.39538C7.73822 1.26518 6.43707 0.514526 4.85348 0.514526C2.08007 0.514526 0 2.62312 0 5.60888ZM1.37815 5.60888C1.37815 3.36534 2.85046 1.87246 4.83636 1.87246C6.44563 1.87246 7.37007 2.85928 7.91791 3.70271C8.14902 4.04009 8.2946 4.13287 8.5 4.13287C8.70547 4.13287 8.83389 4.03165 9.08209 3.70271C9.67273 2.87614 10.5629 1.87246 12.1636 1.87246C14.1496 1.87246 15.6219 3.36534 15.6219 5.60888C15.6219 8.74643 12.2578 12.1287 8.67976 14.4734C8.59416 14.5324 8.53426 14.5746 8.5 14.5746C8.46574 14.5746 8.40585 14.5324 8.32878 14.4734C4.7422 12.1287 1.37815 8.74643 1.37815 5.60888Z" fill="black" fill-opacity="0.85"/>
</g>
<defs>
<clipPath id="clip0_32_32879">
<rect width="17" height="16" fill="white"/>
</clipPath>
</defs>
</svg>
