<svg width="15" height="16" viewBox="0 0 15 16" fill="none" xmlns="http://www.w3.org/2000/svg">
<g clip-path="url(#clip0_32_32891)">
<path d="M0 13.5469C0 14.5642 0.783582 15.2467 1.93796 15.2467H9.75278C10.9141 15.2467 11.6907 14.5642 11.6907 13.5469V2.44671C11.6907 1.42941 10.9141 0.740479 9.75278 0.740479H1.93796C0.783582 0.740479 0 1.42941 0 2.44671V13.5469ZM1.1264 13.373V2.62056C1.1264 2.09259 1.48321 1.7771 2.08489 1.7771H9.6129C10.2146 1.7771 10.5644 2.09259 10.5644 2.62056V13.373C10.5644 13.901 10.2146 14.2101 9.6129 14.2101H2.08489C1.48321 14.2101 1.1264 13.901 1.1264 13.373Z" fill="black" fill-opacity="0.85"/>
<path d="M3.40021 13.74C3.40021 15.0664 4.46364 16 5.92586 16H12.4744C13.9366 16 15 15.0664 15 13.74V4.27522C15 2.94886 13.9366 2.01526 12.4744 2.01526H5.92586C4.46364 2.01526 3.40021 2.94886 3.40021 4.27522V13.74Z" fill="white"/>
<path d="M4.21875 13.74C4.21875 14.6414 4.90438 15.2466 5.92584 15.2466H12.4743C13.4958 15.2466 14.1814 14.6414 14.1814 13.74V4.2752C14.1814 3.37378 13.4958 2.76855 12.4743 2.76855H5.92584C4.90438 2.76855 4.21875 3.37378 4.21875 4.2752V13.74ZM5.34514 13.476V4.53918C5.34514 4.08848 5.65298 3.80517 6.17773 3.80517H12.2295C12.7402 3.80517 13.055 4.08848 13.055 4.53918V13.476C13.055 13.9332 12.7402 14.21 12.2295 14.21H6.17773C5.65298 14.21 5.34514 13.9332 5.34514 13.476Z" fill="black" fill-opacity="0.85"/>
</g>
<defs>
<clipPath id="clip0_32_32891">
<rect width="15" height="16" fill="white"/>
</clipPath>
</defs>
</svg>
