<svg width="34" height="34" viewBox="0 0 34 34" fill="none" xmlns="http://www.w3.org/2000/svg">
<rect y="16.9706" width="24" height="24" rx="12" transform="rotate(-45 0 16.9706)" fill="#2963BA"/>
<path d="M11.7172 21.6877L11.4343 21.9706L12 22.5363L12.2828 22.2534L11.7172 21.6877ZM21.4 12.9706C21.4 12.7497 21.2209 12.5706 21 12.5706L17.4 12.5706C17.1791 12.5706 17 12.7497 17 12.9706C17 13.1915 17.1791 13.3706 17.4 13.3706L20.6 13.3706L20.6 16.5706C20.6 16.7915 20.7791 16.9706 21 16.9706C21.2209 16.9706 21.4 16.7915 21.4 16.5706L21.4 12.9706ZM12.2828 22.2534L21.2828 13.2534L20.7172 12.6877L11.7172 21.6877L12.2828 22.2534Z" fill="white"/>
</svg>
