<svg width="24" height="27" viewBox="0 0 24 27" fill="none" xmlns="http://www.w3.org/2000/svg">
<path d="M5.58323 7.93132L0.64551 12.8388C0.322387 13.172 0.322387 13.7071 0.64551 14.0403C0.97873 14.3635 1.5139 14.3736 1.84712 14.0403L5.58323 10.3043V7.93132ZM18.6091 7.93132V10.3043L22.3452 14.0403C22.6885 14.3736 23.2136 14.3635 23.5468 14.0403C23.87 13.7071 23.87 13.172 23.5468 12.8388L18.6091 7.93132ZM12.0962 26.9652C17.1955 26.9652 19.3664 25.8444 19.3664 23.0979V5.56849C19.3664 2.62 16.6905 0.893311 12.0962 0.893311C7.51186 0.893311 4.82591 2.62 4.82591 5.56849V23.0979C4.82591 25.8444 7.00698 26.9652 12.0962 26.9652ZM12.0962 25.2891C8.1985 25.2891 6.5122 24.6327 6.5122 23.0171V5.56849C6.5122 3.68025 8.57211 2.57961 12.0962 2.57961C15.6303 2.57961 17.6801 3.68025 17.6801 5.56849V23.0171C17.6801 24.6327 16.004 25.2891 12.0962 25.2891ZM12.0962 11.7381C13.0049 11.7381 14.5297 11.8088 15.0447 11.8088C15.802 11.8088 16.1352 11.5159 16.1958 10.7284L16.3674 8.83001C16.4987 7.37596 15.4789 6.7903 12.0962 6.7903C8.72357 6.7903 7.70372 7.37596 7.83499 8.83001L7.99655 10.7284C8.06723 11.5159 8.39035 11.8088 9.15781 11.8088C9.66265 11.8088 11.1369 11.7381 12.0962 11.7381ZM12.0962 22.5122C15.499 22.5122 16.5391 22.0073 16.3271 20.523L16.1958 19.6041C16.0342 18.3924 15.0245 17.9885 12.0962 17.9885C9.17797 17.9885 8.16821 18.3924 8.00665 19.6041L7.87538 20.523C7.66333 22.0073 8.70338 22.5122 12.0962 22.5122ZM5.58323 15.5651L0.64551 20.4726C0.322387 20.7957 0.322387 21.3409 0.64551 21.6741C0.97873 21.9973 1.5139 22.0073 1.84712 21.6741L5.58323 17.938V15.5651ZM18.6091 15.5651V17.938L22.3452 21.6741C22.6885 22.0073 23.2136 21.9973 23.5468 21.6741C23.87 21.3409 23.87 20.7957 23.5468 20.4726L18.6091 15.5651Z" fill="#2963BA"/>
</svg>
