<svg width="35" height="23" viewBox="0 0 35 23" fill="none" xmlns="http://www.w3.org/2000/svg">
<path d="M13.2374 22.4348H24.8896C26.4688 22.4348 27.414 21.5471 27.414 19.9967V17.8424C27.414 17.7833 27.4499 17.7596 27.4977 17.7596H28.9214C28.9812 17.7596 29.0051 17.7833 29.0051 17.8424V19.1682C29.0051 20.5056 29.9023 21.3223 31.3619 21.3223H32.3548C33.8024 21.3223 34.6996 20.5174 34.6996 19.1682V10.6225C34.6996 9.27321 33.8024 8.46835 32.3548 8.46835H31.3619C29.9023 8.46835 29.0051 9.28503 29.0051 10.6225V11.7233C29.0051 11.7706 28.9812 11.8061 28.9214 11.8061H27.4977C27.4499 11.8061 27.414 11.7706 27.414 11.7233V9.71113C27.414 8.24347 26.4928 7.35577 24.9615 7.35577H24.0164L22.0065 5.18978C21.54 4.68083 21.0614 4.47962 20.4752 4.47962H11.1797C10.5815 4.47962 10.103 4.70451 9.63642 5.18978L7.62657 7.35577H6.31059C4.80321 7.35577 3.87008 8.24347 3.87008 9.71113V17.1797C3.87008 18.6591 4.79125 19.5469 6.31059 19.5469H9.68426L11.7061 21.7247C12.1726 22.2218 12.6033 22.4348 13.2374 22.4348ZM13.4886 20.5292C13.2493 20.5292 13.1776 20.4937 13.022 20.3399L10.5217 17.6412H6.32256C5.98759 17.6412 5.79618 17.4518 5.79618 17.0968V9.80582C5.79618 9.45075 5.98759 9.26137 6.32256 9.26137H8.48793L10.9643 6.59827C11.1199 6.42073 11.2036 6.38522 11.407 6.38522H20.236C20.4513 6.38522 20.547 6.42073 20.6906 6.59827L23.179 9.26137H24.9495C25.2845 9.26137 25.4879 9.46258 25.4879 9.80582V13.2028C25.4879 13.5223 25.6793 13.7117 25.9903 13.7117H30.4406C30.7517 13.7117 30.9431 13.5223 30.9431 13.2028V10.7054C30.9431 10.4923 31.0868 10.374 31.3858 10.374H32.3428C32.63 10.374 32.7735 10.5041 32.7735 10.7054V19.0734C32.7735 19.2864 32.63 19.4166 32.3428 19.4166H31.3858C31.0868 19.4166 30.9431 19.2983 30.9431 19.0734V16.3511C30.9431 16.0316 30.7517 15.8422 30.4406 15.8422H25.9903C25.6793 15.8422 25.4879 16.0316 25.4879 16.3511V19.9257C25.4879 20.3162 25.2845 20.5292 24.8777 20.5292H13.4886ZM1.19028 18.1383C1.72863 18.1383 2.15932 17.6886 2.15932 17.1797V14.41H4.70751V12.5044H2.15932V9.72297C2.15932 9.20218 1.71667 8.77609 1.19028 8.77609C0.663896 8.77609 0.233215 9.21402 0.233215 9.72297V17.1797C0.233215 17.7004 0.67586 18.1383 1.19028 18.1383ZM15.7856 5.67506H17.7236V2.79891H21.4801C22.0065 2.79891 22.4372 2.34914 22.4372 1.84019C22.4372 1.31941 22.0065 0.893311 21.4801 0.893311H12.0051C11.4787 0.893311 11.0481 1.33124 11.0481 1.85203C11.0481 2.37281 11.4907 2.79891 12.0051 2.79891H15.7856V5.67506Z" fill="#2963BA"/>
</svg>
