<svg width="20" height="23" viewBox="0 0 20 23" fill="none" xmlns="http://www.w3.org/2000/svg">
<path d="M1.91684 7.61767L2.67416 7.89031C3.46177 8.18314 4.19889 7.81963 4.49172 7.01182L5.91548 3.10405C6.20831 2.29625 5.87509 1.55913 5.08748 1.2663L4.33016 0.993662C3.54255 0.700832 2.81552 1.06434 2.5126 1.88225L1.09894 5.77991C0.796008 6.58772 1.12923 7.32484 1.91684 7.61767ZM15.2154 7.61767L15.9828 7.89031C16.7704 8.18314 17.4974 7.81963 17.7903 7.01182L19.214 3.10405C19.517 2.29625 19.1736 1.55913 18.3961 1.2663L17.6287 0.993662C16.8411 0.700832 16.1242 1.06434 15.8212 1.88225L14.3975 5.77991C14.1046 6.58772 14.4378 7.33494 15.2154 7.61767ZM3.09825 22.5924H3.90606C4.74416 22.5924 5.30963 22.0067 5.30963 21.1484V16.9983C5.30963 16.13 4.74416 15.5443 3.90606 15.5443H3.09825C2.27026 15.5443 1.70479 16.13 1.70479 16.9983V21.1484C1.70479 22.0067 2.27026 22.5924 3.09825 22.5924ZM16.3968 22.5924H17.2046C18.0427 22.5924 18.6082 22.0067 18.6082 21.1484V16.9983C18.6082 16.13 18.0427 15.5443 17.2046 15.5443H16.3968C15.5687 15.5443 15.0033 16.13 15.0033 16.9983V21.1484C15.0033 22.0067 15.5687 22.5924 16.3968 22.5924ZM4.51192 5.25484H15.8111V3.62913H4.51192V5.25484ZM9.33856 19.2804H10.9643V3.62913H9.33856V19.2804ZM4.51192 19.8862H15.8111V18.2605H4.51192V19.8862Z" fill="#2963BA"/>
</svg>
