<svg width="66" height="61" viewBox="0 0 66 61" fill="none" xmlns="http://www.w3.org/2000/svg">
<path fill-rule="evenodd" clip-rule="evenodd" d="M33.7485 52.1828H29.0635C28.672 52.1828 28.296 52.027 28.019 51.7499C27.7419 51.4729 27.5861 51.0969 27.5861 50.7054C27.5861 48.2727 27.5861 43.5264 27.5861 41.8406C27.5861 41.4491 27.7419 41.0731 28.019 40.7961C29.0177 39.7973 31.5168 37.2982 33.063 35.7513C33.8941 34.9202 35.0221 34.4533 36.1974 34.4533C39.5542 34.4533 46.6445 34.4533 50.0013 34.4533C51.1766 34.4533 52.3047 34.9202 53.1357 35.7513L57.7469 40.3632H60.0901H61.5676C62.7429 40.3632 63.8702 40.83 64.702 41.6611C65.5331 42.4929 66 43.6202 66 44.7955C66 46.8802 66 49.2272 66 50.7054C66 51.0969 65.8441 51.4729 65.5671 51.7499C65.2901 52.027 64.914 52.1828 64.5225 52.1828H59.8375C59.2288 53.9033 57.5858 55.1377 55.6578 55.1377C53.7297 55.1377 52.0868 53.9033 51.478 52.1828H42.108C41.4993 53.9033 39.8563 55.1377 37.9283 55.1377C36.0002 55.1377 34.3573 53.9033 33.7485 52.1828ZM55.6578 49.2279C54.8422 49.2279 54.1803 49.8898 54.1803 50.7054C54.1803 51.5209 54.8422 52.1828 55.6578 52.1828C56.4733 52.1828 57.1352 51.5209 57.1352 50.7054C57.1352 49.8898 56.4733 49.2279 55.6578 49.2279ZM37.9283 49.2279C37.1127 49.2279 36.4508 49.8898 36.4508 50.7054C36.4508 51.5209 37.1127 52.1828 37.9283 52.1828C38.7438 52.1828 39.4057 51.5209 39.4057 50.7054C39.4057 49.8898 38.7438 49.2279 37.9283 49.2279ZM59.8375 49.2279H63.0451V44.7955C63.0451 43.9792 62.3839 43.3181 61.5676 43.3181C59.6439 43.3181 56.5236 43.3181 56.5236 43.3181H43.8381C43.0218 43.3181 42.3606 42.6569 42.3606 41.8406C42.3606 41.4491 42.5165 41.0731 42.7935 40.7961C43.0706 40.519 43.4466 40.3632 43.8381 40.3632C46.8817 40.3632 53.5686 40.3632 53.5686 40.3632C53.5686 40.3632 51.8666 38.6619 51.0459 37.8411C50.7689 37.5641 50.3936 37.4082 50.0013 37.4082C47.5724 37.4082 38.6264 37.4082 36.1974 37.4082C35.8052 37.4082 35.4299 37.5641 35.1529 37.8411C33.9303 39.063 30.541 42.4523 30.541 42.4523V49.2279H33.7485C34.3573 47.5074 36.0002 46.273 37.9283 46.273C39.8563 46.273 41.4993 47.5074 42.108 49.2279H51.478C52.0868 47.5074 53.7297 46.273 55.6578 46.273C57.5858 46.273 59.2288 47.5074 59.8375 49.2279Z" fill="#2963BA"/>
<rect width="10.5535" height="32.5003" rx="1" transform="matrix(1 0 0.681998 0.731354 10.3099 36.3529)" fill="#2963BA"/>
<rect width="8.38914" height="42.5107" rx="1" transform="matrix(1 0 -0.469472 0.882948 38.6567 0)" fill="#2963BA"/>
<rect width="8.38914" height="31.2456" rx="1" transform="matrix(1 0 -0.292372 0.956305 9.13538 21.2213)" fill="#2963BA"/>
</svg>
