<svg width="20" height="20" viewBox="0 0 20 20" fill="none" xmlns="http://www.w3.org/2000/svg">
<path d="M0.614744 17.0564L4.91558 12.7553C2.83003 9.58925 3.17865 5.27941 5.96187 2.4962C9.14397 -0.685471 14.3218 -0.685691 17.5037 2.4962C20.6856 5.6783 20.6856 10.8557 17.5037 14.0381C15.9126 15.629 13.8228 16.4244 11.7329 16.4244C10.1668 16.4244 8.60085 15.9776 7.24459 15.0843L2.94375 19.3852C2.62214 19.7068 2.20064 19.8677 1.77936 19.8677C1.35808 19.8677 0.936357 19.7068 0.614744 19.3854C-0.0282631 18.7422 -0.0282631 17.6996 0.614744 17.0564ZM15.1747 11.7093C17.0726 9.8112 17.0726 6.72305 15.1747 4.8252C14.2257 3.87639 12.9794 3.40198 11.7327 3.40198C10.4862 3.40198 9.23969 3.87639 8.29087 4.8252C6.39324 6.72283 6.39303 9.8101 8.28978 11.7079C8.29022 11.7084 8.29065 11.7086 8.29087 11.709C8.29131 11.7095 8.29153 11.7097 8.29175 11.7101C10.1905 13.6069 13.2773 13.6067 15.1747 11.7093Z" fill="#8D8D8D"/>
</svg>
