<svg width="35" height="34" viewBox="0 0 35 34" fill="none" xmlns="http://www.w3.org/2000/svg">
<g clip-path="url(#clip0_49_352)">
<path d="M34.8836 16.9775C34.8836 7.68974 27.1536 2.28882e-05 17.8539 2.28882e-05C8.53768 2.28882e-05 0.824219 7.70636 0.824219 16.9941C0.824219 26.2652 8.53768 33.955 17.8539 33.955C27.1536 33.955 34.8836 26.2485 34.8836 16.9775ZM32.0454 16.9775C32.0454 24.8337 25.7344 31.1087 17.8539 31.1087C9.97353 31.1087 3.66251 24.8503 3.66251 16.9941C3.66251 9.13778 9.97353 2.82948 17.8539 2.82948C25.7344 2.82948 32.0454 9.12116 32.0454 16.9775Z" fill="black" fill-opacity="0.85"/>
<path d="M13.7132 11.7843C13.7132 12.5166 14.2141 12.9994 15.0155 12.9994H17.9039L20.5084 12.7497L17.9372 15.1465L11.7932 21.2718C11.5594 21.5214 11.4092 21.821 11.4092 22.2205C11.4092 22.9529 11.8934 23.4522 12.6447 23.4522C12.9786 23.4522 13.3125 23.2858 13.5462 23.0527L19.6903 16.9109L22.1279 14.3144L21.8607 16.7776V19.807C21.8607 20.606 22.345 21.122 23.0796 21.122C23.8141 21.122 24.2984 20.6226 24.2984 19.8403V11.9508C24.2984 11.102 23.9143 10.5526 22.9293 10.5526H15.0489C14.2642 10.5526 13.7132 11.052 13.7132 11.7843Z" fill="black" fill-opacity="0.85"/>
</g>
<defs>
<clipPath id="clip0_49_352">
<rect width="33.9549" height="34.0762" fill="white" transform="matrix(0 -1 1 0 0.824219 33.955)"/>
</clipPath>
</defs>
</svg>
