<svg width="46" height="51" viewBox="0 0 46 51" fill="none" xmlns="http://www.w3.org/2000/svg">
<path d="M10.5351 13.7311L1.0607 23.1474C0.440703 23.7867 0.440703 24.8136 1.0607 25.453C1.70008 26.073 2.72695 26.0923 3.36633 25.453L10.5351 18.2843V13.7311ZM35.5288 13.7311V18.2843L42.6975 25.453C43.3564 26.0923 44.3639 26.073 45.0032 25.453C45.6232 24.8136 45.6232 23.7867 45.0032 23.1474L35.5288 13.7311ZM23.0319 50.253C32.8164 50.253 36.9819 48.1023 36.9819 42.8323V9.19737C36.9819 3.53988 31.8475 0.226746 23.0319 0.226746C14.2357 0.226746 9.08195 3.53988 9.08195 9.19737V42.8323C9.08195 48.1023 13.2669 50.253 23.0319 50.253ZM23.0319 47.0367C15.5532 47.0367 12.3176 45.7774 12.3176 42.6774V9.19737C12.3176 5.57425 16.2701 3.46237 23.0319 3.46237C29.8132 3.46237 33.7464 5.57425 33.7464 9.19737V42.6774C33.7464 45.7774 30.5301 47.0367 23.0319 47.0367ZM23.0319 21.0354C24.7757 21.0354 27.7013 21.1712 28.6895 21.1712C30.1426 21.1712 30.7819 20.6092 30.8982 19.0981L31.2275 15.4555C31.4795 12.6655 29.5226 11.5417 23.0319 11.5417C16.5607 11.5417 14.6038 12.6655 14.8557 15.4555L15.1657 19.0981C15.3013 20.6092 15.9213 21.1712 17.3939 21.1712C18.3626 21.1712 21.1913 21.0354 23.0319 21.0354ZM23.0319 41.7085C29.5613 41.7085 31.557 40.7399 31.1501 37.8917L30.8982 36.1286C30.5882 33.8036 28.6508 33.0285 23.0319 33.0285C17.4326 33.0285 15.4951 33.8036 15.1851 36.1286L14.9332 37.8917C14.5263 40.7399 16.5219 41.7085 23.0319 41.7085ZM10.5351 28.3785L1.0607 37.7949C0.440703 38.4149 0.440703 39.4612 1.0607 40.1005C1.70008 40.7205 2.72695 40.7399 3.36633 40.1005L10.5351 32.9317V28.3785ZM35.5288 28.3785V32.9317L42.6975 40.1005C43.3564 40.7399 44.3639 40.7205 45.0032 40.1005C45.6232 39.4612 45.6232 38.4149 45.0032 37.7949L35.5288 28.3785Z" fill="#2963BA"/>
</svg>
