<svg width="67" height="42" viewBox="0 0 67 42" fill="none" xmlns="http://www.w3.org/2000/svg">
<path d="M25.019 41.5601H47.3771C50.4072 41.5601 52.2207 39.8568 52.2207 36.8818V32.7483C52.2207 32.6349 52.2896 32.5894 52.3813 32.5894H55.1131C55.2279 32.5894 55.2737 32.6349 55.2737 32.7483V35.2921C55.2737 37.8584 56.9953 39.4254 59.7958 39.4254H61.701C64.4786 39.4254 66.2002 37.881 66.2002 35.2921V18.8949C66.2002 16.3059 64.4786 14.7616 61.701 14.7616H59.7958C56.9953 14.7616 55.2737 16.3286 55.2737 18.8949V21.0071C55.2737 21.0978 55.2279 21.166 55.1131 21.166H52.3813C52.2896 21.166 52.2207 21.0978 52.2207 21.0071V17.1462C52.2207 14.3301 50.4532 12.6268 47.515 12.6268H45.7015L41.845 8.47072C40.9498 7.49415 40.0315 7.10807 38.9067 7.10807H21.0708C19.9229 7.10807 19.0048 7.53958 18.1095 8.47072L14.2531 12.6268H11.728C8.8357 12.6268 7.04522 14.3301 7.04522 17.1462V31.4766C7.04522 34.3153 8.81275 36.0188 11.728 36.0188H18.2013L22.0808 40.1975C22.976 41.1514 23.8024 41.5601 25.019 41.5601ZM25.5011 37.9037C25.0419 37.9037 24.9042 37.8355 24.6057 37.5403L19.8082 32.3623H11.751C11.1083 32.3623 10.741 31.9989 10.741 31.3177V17.3279C10.741 16.6466 11.1083 16.2832 11.751 16.2832H15.9059L20.6575 11.1733C20.956 10.8326 21.1166 10.7645 21.5068 10.7645H38.4478C38.8609 10.7645 39.0444 10.8326 39.32 11.1733L44.0947 16.2832H47.4919C48.1348 16.2832 48.525 16.6693 48.525 17.3279V23.8458C48.525 24.459 48.8922 24.8224 49.4891 24.8224H58.0282C58.6251 24.8224 58.9923 24.459 58.9923 23.8458V19.0539C58.9923 18.6451 59.2679 18.418 59.8417 18.418H61.6781C62.2291 18.418 62.5045 18.6678 62.5045 19.0539V35.1103C62.5045 35.519 62.2291 35.7688 61.6781 35.7688H59.8417C59.2679 35.7688 58.9923 35.5419 58.9923 35.1103V29.8869C58.9923 29.2737 58.6251 28.9103 58.0282 28.9103H49.4891C48.8922 28.9103 48.525 29.2737 48.525 29.8869V36.7456C48.525 37.495 48.1348 37.9037 47.3542 37.9037H25.5011ZM1.9033 33.3161C2.93626 33.3161 3.76265 32.4531 3.76265 31.4766V26.1623H8.65206V22.5059H3.76265V17.1689C3.76265 16.1696 2.91331 15.352 1.9033 15.352C0.893275 15.352 0.0668945 16.1923 0.0668945 17.1689V31.4766C0.0668945 32.4758 0.91623 33.3161 1.9033 33.3161ZM29.9085 9.40186H33.6271V3.88316H40.835C41.845 3.88316 42.6714 3.02016 42.6714 2.0436C42.6714 1.04433 41.845 0.226746 40.835 0.226746H22.6545C21.6446 0.226746 20.8183 1.06704 20.8183 2.06631C20.8183 3.06557 21.6675 3.88316 22.6545 3.88316H29.9085V9.40186Z" fill="#2963BA"/>
</svg>
