<svg width="33" height="34" viewBox="0 0 33 34" fill="none" xmlns="http://www.w3.org/2000/svg">
<path d="M0.541504 28.7489C0.541504 30.9078 2.21035 32.3562 4.66891 32.3562H21.3126C23.786 32.3562 25.44 30.9078 25.44 28.7489V5.19229C25.44 3.03339 23.786 1.57135 21.3126 1.57135H4.66891C2.21035 1.57135 0.541504 3.03339 0.541504 5.19229V28.7489ZM2.94047 28.38V5.56122C2.94047 4.44077 3.70039 3.77125 4.98182 3.77125H21.0147C22.2961 3.77125 23.0411 4.44077 23.0411 5.56122V28.38C23.0411 29.5005 22.2961 30.1564 21.0147 30.1564H4.98182C3.70039 30.1564 2.94047 29.5005 2.94047 28.38Z" fill="black" fill-opacity="0.85"/>
<path d="M7.7832 29.1588C7.7832 31.9737 10.0481 33.9549 13.1622 33.9549H27.109C30.2233 33.9549 32.4881 31.9737 32.4881 29.1588V9.07284C32.4881 6.25807 30.2233 4.27679 27.109 4.27679H13.1622C10.0481 4.27679 7.7832 6.25807 7.7832 9.07284V29.1588Z" fill="white"/>
<path d="M9.52637 29.1589C9.52637 31.0718 10.9866 32.3562 13.1621 32.3562H27.1088C29.2843 32.3562 30.7445 31.0718 30.7445 29.1589V9.07286C30.7445 7.1599 29.2843 5.87549 27.1088 5.87549H13.1621C10.9866 5.87549 9.52637 7.1599 9.52637 9.07286V29.1589ZM11.9253 28.5986V9.63308C11.9253 8.67661 12.5809 8.07539 13.6985 8.07539H26.5873C27.675 8.07539 28.3456 8.67661 28.3456 9.63308V28.5986C28.3456 29.5688 27.675 30.1564 26.5873 30.1564H13.6985C12.5809 30.1564 11.9253 29.5688 11.9253 28.5986Z" fill="black" fill-opacity="0.85"/>
</svg>
