<svg width="37" height="34" viewBox="0 0 37 34" fill="none" xmlns="http://www.w3.org/2000/svg">
<g clip-path="url(#clip0_49_357)">
<path d="M0 11.903C0 19.5282 6.50833 27.0279 16.7905 33.4717C17.1733 33.7043 17.7201 33.9549 18.103 33.9549C18.4858 33.9549 19.0328 33.7043 19.4339 33.4717C29.6976 27.0279 36.206 19.5282 36.206 11.903C36.206 5.56667 31.776 1.09186 25.8692 1.09186C22.4965 1.09186 19.762 2.66699 18.103 5.08338C16.4806 2.68489 13.7094 1.09186 10.3368 1.09186C4.43005 1.09186 0 5.56667 0 11.903ZM2.93513 11.903C2.93513 7.1418 6.07079 3.97363 10.3003 3.97363C13.7277 3.97363 15.6965 6.06786 16.8633 7.85777C17.3555 8.57374 17.6655 8.77064 18.103 8.77064C18.5406 8.77064 18.8141 8.55584 19.3427 7.85777C20.6006 6.10364 22.4965 3.97363 25.9057 3.97363C30.1352 3.97363 33.2709 7.1418 33.2709 11.903C33.2709 18.5615 26.1062 25.7392 18.4858 30.7152C18.3035 30.8404 18.1759 30.9299 18.103 30.9299C18.03 30.9299 17.9025 30.8404 17.7383 30.7152C10.0998 25.7392 2.93513 18.5615 2.93513 11.903Z" fill="black" fill-opacity="0.85"/>
</g>
<defs>
<clipPath id="clip0_49_357">
<rect width="36.206" height="33.9549" fill="white"/>
</clipPath>
</defs>
</svg>
