<svg width="36" height="42" viewBox="0 0 36 42" fill="none" xmlns="http://www.w3.org/2000/svg">
<path d="M1.94599 13.1293L3.39912 13.6524C4.91037 14.2143 6.32475 13.5168 6.88662 11.9668L9.61848 4.46867C10.1804 2.91867 9.54099 1.5043 8.02975 0.942422L6.57662 0.419298C5.06537 -0.142578 3.67037 0.554922 3.08912 2.12429L0.376617 9.60305C-0.204633 11.153 0.434741 12.5674 1.94599 13.1293ZM27.4629 13.1293L28.9354 13.6524C30.4467 14.2143 31.8416 13.5168 32.4036 11.9668L35.1354 4.46867C35.7167 2.91867 35.0578 1.5043 33.566 0.942422L32.0936 0.419298C30.5823 -0.142578 29.2067 0.554922 28.6254 2.12429L25.8936 9.60305C25.3316 11.153 25.9709 12.5868 27.4629 13.1293ZM4.21286 41.8625H5.76286C7.37099 41.8625 8.45599 40.7387 8.45599 39.0918V31.1287C8.45599 29.4625 7.37099 28.3387 5.76286 28.3387H4.21286C2.62412 28.3387 1.53912 29.4625 1.53912 31.1287V39.0918C1.53912 40.7387 2.62412 41.8625 4.21286 41.8625ZM29.7298 41.8625H31.2798C32.8878 41.8625 33.9729 40.7387 33.9729 39.0918V31.1287C33.9729 29.4625 32.8878 28.3387 31.2798 28.3387H29.7298C28.1409 28.3387 27.056 29.4625 27.056 31.1287V39.0918C27.056 40.7387 28.1409 41.8625 29.7298 41.8625ZM6.92537 8.59556H28.606V5.47618H6.92537V8.59556ZM16.1866 35.5074H19.306V5.47618H16.1866V35.5074ZM6.92537 36.6698H28.606V33.5505H6.92537V36.6698Z" fill="#2963BA"/>
</svg>
